<?xml version="1.0" encoding="UTF-8"?>
<svg id="Layer_1" xmlns="http://www.w3.org/2000/svg" version="1.1" viewBox="0 0 512 512">
  <!-- Generator: Adobe Illustrator 29.6.1, SVG Export Plug-In . SVG Version: 2.1.1 Build 9)  -->
  <defs>
    <style>
      .st0 {
        fill: #fff;
      }

      .st1 {
        fill: #161f28;
      }

      .st2 {
        fill: #7b0a1c;
      }

      .st3 {
        fill: #e77e4e;
      }

      .st4 {
        fill: #b6142c;
      }
    </style>
  </defs>
  <path class="st2" d="M192.34,356.5c6.62-6.16,11.65-12.99,15.1-20.49,5.11-11.29,7.96-23.77,8.53-37.45l1.15-27.64-33.5-.05-.64,15.38c-.64,15.38-1.94,27.39-3.9,36-1.96,8.63-4.71,15.57-8.23,20.84-1.61,2.38-4.42,5.01-8.44,7.9l3.33-80.14-33.35-.05-7.54,181.69,33.35.05,3.54-85.27c3.36,1.05,5.85,2.68,7.46,4.91,3.14,4.02,5.37,11.06,6.71,21.14,1.34,10.07,1.72,22.09,1.14,36.06l-.96,23.18,33.5.05,1.12-26.98c.88-21.1-.35-36.59-3.67-46.48-3.33-9.89-8.22-17.44-14.67-22.65Z"/>
  <polygon class="st3" points="231.39 384.04 215.29 384.04 215.29 452.61 240.76 452.61 240.76 443.48 231.39 443.48 231.39 384.04"/>
  <path class="st4" d="M230.54,270.81l-15.25,104.64h17.99l1.8-18.66h10.14l5.34,95.83h18.29l-18.62-181.8h-19.69ZM236.07,343.22l1.91-27.33c.28-4.07.69-13.37,1.24-27.89h1.49l1.9,34.14,1.38,21.08h-7.93Z"/>
  <polygon class="st3" points="305.93 392.69 285.48 393 282.77 373.75 308.41 373.75 310.16 361.71 268.86 361.71 274.94 452.61 304.04 452.61 305.93 425.75 288.21 425.75 285.48 414.24 303.81 413.93 305.93 392.69"/>
  <path class="st4" d="M374.75,371.3c-1.75-3.73-4.49-7.68-8.2-11.86,5.1-4.55,8.86-9.32,11.27-14.31,3.43-7.01,5.14-15.02,5.14-24.05,0-15.95-4.22-28.36-12.64-37.23-8.43-8.87-20.19-13.3-35.29-13.3h-12.91l-13.74,181.92,36.57.14,1.24-79.63c4.67,3.87,8.43,10.58,11.27,20.12,3.79,12.67,5.21,32.38,6.23,59.51h26.43c-1.53-21.69-4.52-38.53-6.68-50.9-2.15-12.37-5.05-22.51-8.7-30.41ZM357.3,339.73c-2.23,4.65-5.27,7.83-9.14,9.54v-52.45c3.94,1.72,7,4.82,9.19,9.32,2.19,4.5,3.28,10.13,3.28,16.9s-1.11,12.03-3.34,16.68Z"/>
  <path class="st2" d="M295.27,351.63c2.56-1.5,7.82-4.97,12.05-11.29,3.31-4.91,5.21-10.41,6.21-19.55,2.01-17.92,3.39-30.19-3.62-39.05-9.2-11.65-30.54-14.33-51.88-6.38l8.66,80.42c3.48.73,16.25,3.05,28.59-4.15ZM269.27,285.41c12.94-4.82,23.55-2.05,29.16,5.01,4.23,5.36,5.69,11.67,4.48,22.5-.63,5.53-1.78,8.89-3.77,11.85-2.56,3.81-5.75,5.93-7.3,6.83-7.48,4.35-15.21,2.96-17.31,2.51l-5.26-48.7Z"/>
  <path class="st1" d="M244.65,255.64c-.22,0-.41.18-.41.41s.19.41.41.41.41-.19.41-.41-.18-.41-.41-.41ZM244.65,254.22c-.22,0-.41.18-.41.41s.19.41.41.41.41-.18.41-.41-.18-.41-.41-.41ZM246.07,255.64c-.22,0-.41.18-.41.41s.19.41.41.41.41-.19.41-.41-.18-.41-.41-.41ZM246.07,254.22c-.22,0-.41.18-.41.41s.19.41.41.41.41-.18.41-.41-.18-.41-.41-.41ZM246.07,255.04c.23,0,.41-.18.41-.41s-.18-.41-.41-.41-.41.18-.41.41.19.41.41.41ZM246.07,255.64c-.22,0-.41.18-.41.41s.19.41.41.41.41-.19.41-.41-.18-.41-.41-.41ZM244.65,254.22c-.22,0-.41.18-.41.41s.19.41.41.41.41-.18.41-.41-.18-.41-.41-.41ZM244.65,255.64c-.22,0-.41.18-.41.41s.19.41.41.41.41-.19.41-.41-.18-.41-.41-.41ZM461.75,212.52c-.28-1.66-1.25-3.12-2.66-4.02l-86.61-55.33v-.03h-58.13v18.12c0,6.88-5.57,12.46-12.46,12.46s-12.48-5.58-12.48-12.46v-18.12h-67.31v18.12c0,6.88-5.61,12.46-12.49,12.46s-12.45-5.58-12.45-12.46v-18.12h-58.14v.04l-86.58,55.32c-1.41.9-2.38,2.36-2.66,4.02-.29,1.66.14,3.35,1.18,4.68l34.8,44.4c1.15,1.47,2.89,2.29,4.69,2.29.64,0,1.29-.11,1.92-.32l42.1-14.34-.69,14.67h206.32c2.18.19,30.78,3.02,39.65,21.33l-2.02-21.34-.7-14.67,42.13,14.35c.63.21,1.28.32,1.92.32,1.8,0,3.54-.82,4.69-2.29l34.8-44.4c1.03-1.33,1.47-3.02,1.18-4.68ZM135.08,236.43l-42.55,14.49-28.14-35.91,73.94-47.24-3.25,68.66ZM235.35,259.27c-2.17,0-3.93-1.76-3.93-3.93s1.76-3.93,3.93-3.93,3.92,1.76,3.92,3.93-1.75,3.93-3.92,3.93ZM245.36,259.27c-2.17,0-3.92-1.76-3.92-3.93s1.75-3.93,3.92-3.93,3.93,1.76,3.93,3.93-1.76,3.93-3.93,3.93ZM419,250.92l-42.57-14.5-3.26-68.67,73.97,47.26-28.14,35.91ZM246.07,254.22c-.22,0-.41.18-.41.41s.19.41.41.41.41-.18.41-.41-.18-.41-.41-.41ZM246.07,255.64c-.22,0-.41.18-.41.41s.19.41.41.41.41-.19.41-.41-.18-.41-.41-.41ZM244.65,254.22c-.22,0-.41.18-.41.41s.19.41.41.41.41-.18.41-.41-.18-.41-.41-.41ZM244.65,255.64c-.22,0-.41.18-.41.41s.19.41.41.41.41-.19.41-.41-.18-.41-.41-.41ZM236.06,254.22c-.23,0-.41.18-.41.41s.18.41.41.41.41-.18.41-.41-.19-.41-.41-.41ZM236.06,255.64c-.23,0-.41.18-.41.41s.18.41.41.41.41-.19.41-.41-.19-.41-.41-.41ZM234.64,254.22c-.23,0-.41.18-.41.41s.18.41.41.41.41-.18.41-.41-.19-.41-.41-.41ZM234.64,255.64c-.23,0-.41.18-.41.41s.18.41.41.41.41-.19.41-.41-.19-.41-.41-.41Z"/>
  <path class="st3" d="M209.62,176.38c3.29,0,5.96-2.67,5.96-5.96v-59.17c0-22.15,18.02-40.18,40.18-40.18s40.18,18.02,40.18,40.18v59.17c0,3.29,2.67,5.96,5.96,5.96s5.96-2.67,5.96-5.96v-59.17c0-28.73-23.37-52.1-52.1-52.1s-52.1,23.37-52.1,52.1v59.17c0,3.29,2.67,5.96,5.96,5.96Z"/>
  <g>
    <path class="st0" d="M235.05,256.05c0,.22-.19.41-.41.41s-.41-.19-.41-.41.18-.41.41-.41.41.18.41.41Z"/>
    <path class="st0" d="M235.05,254.63c0,.23-.19.41-.41.41s-.41-.18-.41-.41.18-.41.41-.41.41.18.41.41Z"/>
    <circle class="st0" cx="236.06" cy="256.05" r=".41"/>
    <path class="st0" d="M235.65,254.63c0-.23.18-.41.41-.41s.41.18.41.41-.19.41-.41.41-.41-.18-.41-.41Z"/>
    <g>
      <path class="st1" d="M235.05,254.63c0,.23-.19.41-.41.41s-.41-.18-.41-.41.18-.41.41-.41.41.18.41.41Z"/>
      <path class="st1" d="M236.47,254.63c0,.23-.19.41-.41.41s-.41-.18-.41-.41.18-.41.41-.41.41.18.41.41Z"/>
      <path class="st1" d="M235.05,256.05c0,.22-.19.41-.41.41s-.41-.19-.41-.41.18-.41.41-.41.41.18.41.41Z"/>
      <circle class="st1" cx="236.06" cy="256.05" r=".41"/>
    </g>
  </g>
  <g>
    <path class="st0" d="M245.06,256.05c0,.22-.18.41-.41.41s-.41-.19-.41-.41.19-.41.41-.41.41.18.41.41Z"/>
    <path class="st0" d="M245.06,254.63c0,.23-.18.41-.41.41s-.41-.18-.41-.41.19-.41.41-.41.41.18.41.41Z"/>
    <path class="st0" d="M246.48,256.05c0,.22-.18.41-.41.41s-.41-.19-.41-.41.19-.41.41-.41.41.18.41.41Z"/>
    <path class="st0" d="M245.66,254.63c0-.23.19-.41.41-.41s.41.18.41.41-.18.41-.41.41-.41-.18-.41-.41Z"/>
    <g>
      <path class="st1" d="M245.06,254.63c0,.23-.18.41-.41.41s-.41-.18-.41-.41.19-.41.41-.41.41.18.41.41Z"/>
      <path class="st1" d="M246.48,254.63c0,.23-.18.41-.41.41s-.41-.18-.41-.41.19-.41.41-.41.41.18.41.41Z"/>
      <path class="st1" d="M245.06,256.05c0,.22-.18.41-.41.41s-.41-.19-.41-.41.19-.41.41-.41.41.18.41.41Z"/>
      <path class="st1" d="M246.48,256.05c0,.22-.18.41-.41.41s-.41-.19-.41-.41.19-.41.41-.41.41.18.41.41Z"/>
    </g>
  </g>
</svg>